<?xml version="1.0" encoding="utf-8"?>
<!-- Generator: Adobe Illustrator 22.1.0, SVG Export Plug-In . SVG Version: 6.00 Build 0)  -->
<svg version="1.1" id="Layer_1" xmlns="http://www.w3.org/2000/svg" xmlns:xlink="http://www.w3.org/1999/xlink" x="0px" y="0px"
	 viewBox="0 0 20 20" style="enable-background:new 0 0 20 20;" xml:space="preserve">
<style type="text/css">
	.st0{fill:#4987CE;}
</style>
<path class="st0" d="M10,20c-0.1,0-0.2,0-0.3,0l2.1-5.6h2.8c0.5,0,1.1-0.4,1.2-0.9L18,7.4c0.4-1-0.2-1.8-1.2-1.8h-3.9l-3.2,9l0,0
	l-1.8,5.1C3.3,18.7,0,14.7,0,10c0-4.6,3.1-8.4,7.3-9.6L5.4,5.6l0,0l-3.2,8.8h2.1L7,6.9h1.6l-2.7,7.4H8l2.5-6.9
	c0.4-1-0.2-1.8-1.2-1.8H7.5L9.6,0C9.7,0,9.9,0,10,0c5.5,0,10,4.5,10,10S15.5,20,10,20z M16,6.9h-1.6L12.2,13h1.6L16,6.9z"/>
</svg>
